<svg width="50" height="50" viewBox="0 0 50 50" fill="none" xmlns="http://www.w3.org/2000/svg">
<path d="M0.429692 0.546875C0.117192 0.898438 0.0390666 5.42969 0.0781291 16.4453L0.195317 31.7969L7.22657 36.0156C11.0938 38.3203 14.375 40.2344 14.5703 40.2344C14.7266 40.2344 14.8047 32.8906 14.7656 23.9453L14.6484 7.61719L8.28125 3.82812C4.76563 1.71875 1.64063 0 1.36719 0C1.09375 0 0.664066 0.234375 0.429692 0.546875Z" fill="black"/>
<path d="M23.4375 4.21875L17.7734 7.65625L17.6563 23.9453C17.6172 32.8906 17.6953 40.2344 17.8516 40.2344C18.0469 40.2344 20 39.1406 22.2656 37.7734L26.3672 35.3125L26.6406 32.7734C26.8359 31.0938 27.3828 29.375 28.3203 27.5391L29.6875 24.8047V12.7734C29.6875 6.17188 29.5703 0.78125 29.4141 0.78125C29.2188 0.820312 26.5625 2.34375 23.4375 4.21875Z" fill="black"/>
<path d="M32.4219 11.6797C32.4219 17.7344 32.4609 22.6562 32.5391 22.6562C32.6172 22.6562 33.4375 22.2656 34.4141 21.7969C36.9141 20.5859 40.9766 20.3906 43.75 21.3672C44.9219 21.7969 46.2109 22.2656 46.6016 22.4609C47.2266 22.7344 47.2656 22.3047 47.2656 16.875C47.2656 13.6328 47.1094 10.5859 46.9141 10.0781C46.6797 9.41406 44.4141 7.85156 39.7656 5.07812C36.0547 2.89062 32.8906 0.976562 32.7344 0.898438C32.5391 0.820312 32.4219 5.66406 32.4219 11.6797Z" fill="black"/>
<path d="M37.0313 23.9844C35.1563 24.4922 34.6485 24.8047 32.6563 26.5234C30.1172 28.7891 29.0235 33.4375 30.1172 37.1484C30.6641 38.8672 38.8281 50 39.5313 50C40.3906 50 40.7422 49.5703 44.4531 44.6484C48.6328 39.1016 49.5313 37.5391 49.8438 35.0781C50.8203 28.0859 43.8672 22.0703 37.0313 23.9844ZM42.0703 30.1562C43.3203 30.7812 44.2578 33.0078 43.9844 34.5703C43.0078 39.6484 35.5469 38.9453 35.5469 33.7891C35.5469 30.3125 38.75 28.5156 42.0703 30.1562Z" fill="black"/>
</svg>
