<svg width="50" height="50" viewBox="0 0 50 50" fill="none" xmlns="http://www.w3.org/2000/svg">
<g clip-path="url(#clip0_10_207)">
<path d="M25 2.26562V4.53125L28.0469 5C36.7578 6.32812 43.6719 13.2422 45 21.9531L45.4687 25H47.7344H50V23.7109C49.9609 21.1719 48.7891 16.9141 47.2266 13.6719C44.9609 9.10156 40.8984 5.03906 36.3281 2.77344C33.0859 1.21094 28.8281 0.0390625 26.2891 0H25V2.26562Z" fill="black"/>
<path d="M6.83591 5.31248C5.0781 6.21092 1.6406 9.72654 0.781226 11.5625C-0.234399 13.5937 -0.195336 16.0547 0.820289 19.375C3.32029 27.539 9.92185 36.5234 17.7734 42.5C21.0547 45 29.1015 48.9844 31.9531 49.5703C36.7578 50.5469 38.4765 49.9219 42.2265 46.0156C44.6094 43.4765 44.8828 42.9687 44.9219 41.6406C44.9219 40.1953 44.6484 39.8047 40.8984 36.0547C37.1875 32.3828 36.7578 32.0312 35.3906 32.0312C34.1015 32.0312 33.5547 32.3437 31.1719 34.6484L28.4765 37.3047L26.3672 36.1719C22.1094 33.8672 15.9375 27.6953 13.789 23.5547L12.7344 21.5234L15.3515 18.8281C17.6172 16.4453 17.9687 15.8984 17.9687 14.6484C17.9687 13.3203 17.6172 12.8125 14.375 9.45311C12.3828 7.42186 10.1953 5.50779 9.49216 5.23436C7.96873 4.57029 8.24216 4.57029 6.83591 5.31248Z" fill="black"/>
<path d="M25 11.3281V13.6719H26.2891C27.8516 13.6719 31.4844 15.3125 32.9687 16.7188C34.4141 18.0469 36.3281 22.0703 36.3281 23.7109V25H38.6719H41.0156V23.6328C41.0156 21.4844 39.5312 17.4609 37.9297 15.3906C35.1953 11.7578 30.1953 8.98438 26.3281 8.98438H25V11.3281Z" fill="black"/>
</g>
<defs>
<clipPath id="clip0_10_207">
<rect width="50" height="50" fill="white"/>
</clipPath>
</defs>
</svg>
