<?xml version="1.0" standalone="no"?>
<!DOCTYPE svg PUBLIC "-//W3C//DTD SVG 20010904//EN"
 "http://www.w3.org/TR/2001/REC-SVG-20010904/DTD/svg10.dtd">
<svg version="1.0" xmlns="http://www.w3.org/2000/svg"
 width="64.000000pt" height="64.000000pt" viewBox="0 0 64.000000 64.000000"
 preserveAspectRatio="xMidYMid meet">

<g transform="translate(0.000000,64.000000) scale(0.100000,-0.100000)"
fill="#ffffff" stroke="none">
<path d="M3 534 c-3 -8 -1 -20 4 -25 5 -5 133 -8 319 -7 301 3 309 3 309 23 0
20 -8 20 -313 23 -277 2 -313 1 -319 -14z"/>
<path d="M10 340 c-12 -7 -12 -13 -4 -27 10 -17 35 -18 314 -18 279 0 304 1
314 18 8 14 8 20 -4 27 -20 13 -600 13 -620 0z"/>
<path d="M3 124 c-3 -8 -1 -20 4 -25 5 -5 133 -8 319 -7 301 3 309 3 309 23 0
20 -8 20 -313 23 -277 2 -313 1 -319 -14z"/>
</g>
</svg>
