<?xml version="1.0" standalone="no"?>
<!DOCTYPE svg PUBLIC "-//W3C//DTD SVG 20010904//EN"
 "http://www.w3.org/TR/2001/REC-SVG-20010904/DTD/svg10.dtd">
<svg version="1.0" xmlns="http://www.w3.org/2000/svg"
 width="64.000000pt" height="64.000000pt" viewBox="0 0 64.000000 64.000000"
 preserveAspectRatio="xMidYMid meet">

<g transform="translate(0.000000,64.000000) scale(0.100000,-0.100000)"
fill="#000000" stroke="none">
<path d="M44 589 c-4 -7 48 -66 122 -140 l129 -129 -130 -130 c-103 -103 -127
-132 -117 -142 10 -10 39 14 142 117 l130 130 130 -130 c103 -103 132 -127
142 -117 10 10 -14 39 -117 142 l-130 130 130 130 c103 103 127 132 117 142
-10 10 -39 -14 -142 -117 l-130 -130 -128 128 c-70 70 -130 127 -134 127 -4 0
-10 -5 -14 -11z"/>
</g>
</svg>
