<svg width="60" height="59" viewBox="0 0 60 59" fill="none" xmlns="http://www.w3.org/2000/svg">
<g clip-path="url(#clip0_10_243)">
<path d="M6.705 1.83215C0.465625 5.58762 0 7.32795 0 29.3111C0 47.3557 0.18625 49.2792 1.8625 52.0271C5.68062 58.1641 7.45 58.6221 29.8 58.6221C52.15 58.6221 53.9194 58.1641 57.7375 52.0271C59.4137 49.2792 59.6 47.3557 59.6 29.3111C59.6 11.2666 59.4137 9.34308 57.7375 6.59518C53.9194 0.458202 52.15 0.000221252 29.8 0.000221252C11.4544 0.000221252 9.49875 0.183414 6.705 1.83215ZM50.8462 8.61031L54.0125 11.7246V29.3111V46.8977L50.8462 50.012L47.68 53.1263H29.8H11.92L8.75375 50.012L5.5875 46.8977V29.3111V11.7246L8.75375 8.61031L11.92 5.49602H29.8H47.68L50.8462 8.61031Z" fill="black"/>
<path d="M21.605 16.4878C17.135 19.2357 14.9 23.3576 14.9 29.3113C14.9 38.471 20.4875 43.9668 29.8 43.9668C39.1125 43.9668 44.7 38.471 44.7 29.3113C44.7 23.3576 42.465 19.2357 37.995 16.4878C33.8044 14.0147 25.7956 14.0147 21.605 16.4878ZM35.9463 23.266C38.2744 25.4643 39.1125 27.2046 39.1125 29.3113C39.1125 31.4181 38.2744 33.0668 35.9463 35.3567C31.6625 39.5702 27.9375 39.5702 23.6538 35.3567C19.37 31.1433 19.37 27.4794 23.6538 23.266C27.9375 19.0525 31.6625 19.0525 35.9463 23.266Z" fill="black"/>
</g>
<defs>
<clipPath id="clip0_10_243">
<rect width="59.6" height="58.6218" fill="white"/>
</clipPath>
</defs>
</svg>
