<svg width="60" height="59" viewBox="0 0 60 59" fill="none" xmlns="http://www.w3.org/2000/svg">
<g clip-path="url(#clip0_10_240)">
<path d="M0.465603 1.09936C0.186228 1.74054 0.093103 14.8389 0.186228 30.2271L0.465603 58.1641H29.8H59.1344V29.3111V0.458183L29.9862 0.183395C7.07748 0.000202179 0.744978 0.183395 0.465603 1.09936ZM32.035 17.9531C33.1525 18.4111 33.525 19.8767 33.525 23.9069C33.525 26.9296 33.8975 29.3111 34.4562 29.3111C35.9462 29.3111 38.9262 26.0136 40.975 21.9834C42.8375 18.4111 43.0237 18.3195 47.4937 18.3195H52.2431L50.7531 21.0674C50.0081 22.533 48.3319 25.2809 47.0281 27.1128C45.7244 28.9447 44.7 30.7767 44.7 31.2347C44.7 31.6926 46.3762 33.6162 48.5181 35.6313C50.5669 37.738 52.0569 39.7531 51.6844 40.3027C51.405 40.7607 49.2631 41.2187 47.0281 41.2187C43.7687 41.2187 42.1856 40.6691 39.5781 38.3792C36.1325 35.3565 33.525 35.3565 33.525 38.3792C33.525 40.9439 32.1281 41.4935 27.3787 40.7607C21.7912 39.9363 16.7625 35.5397 12.1062 27.1128C10.0575 23.5405 8.38123 20.0599 8.38123 19.4187C8.38123 18.7775 9.68498 18.3195 11.92 18.3195C15.0862 18.3195 15.5519 18.6859 17.6006 22.3498C20.115 27.1128 22.7225 29.7691 24.1194 28.8531C25.6094 28.0288 25.4231 19.2355 24.0262 19.2355C23.1881 19.2355 23.2812 18.8691 24.2125 18.3195C25.7956 17.312 29.8931 17.1288 32.035 17.9531Z" fill="black"/>
</g>
<defs>
<clipPath id="clip0_10_240">
<rect width="59.6" height="58.6218" fill="white"/>
</clipPath>
</defs>
</svg>
