<svg width="60" height="59" viewBox="0 0 60 59" fill="none" xmlns="http://www.w3.org/2000/svg">
<g clip-path="url(#clip0_10_247)">
<path d="M1.58312 9.25104C0.18625 10.0754 0 11.9989 0 28.8527C0 44.6073 0.18625 47.7216 1.49 48.9124C2.70062 50.1947 6.61187 50.3779 29.8 50.3779C52.9881 50.3779 56.8994 50.1947 58.11 48.9124C60.345 46.8057 60.345 11.8157 58.11 9.70902C56.8994 8.42667 52.9881 8.24348 29.9862 8.24348C13.5962 8.24348 2.6075 8.70146 1.58312 9.25104ZM40.6956 23.5401L29.8 34.3485L18.9044 23.5401L7.91562 12.8233H29.8H51.6844L40.6956 23.5401ZM10.43 35.9973L3.725 42.5922V29.1275V15.7544L10.43 22.5326L17.135 29.4023L10.43 35.9973ZM55.875 29.4939V42.5922L49.17 35.9973L42.3719 29.3107L48.8906 22.8989C52.4294 19.4183 55.5025 16.4872 55.5956 16.4872C55.7819 16.4872 55.875 22.3494 55.875 29.4939ZM29.8 38.4704C31.4762 38.4704 33.7112 37.4628 35.6669 35.7225L38.8331 33.0662L45.1656 39.3863L51.5912 45.7981H29.8H8.00875L14.4344 39.3863L20.7669 33.0662L23.9331 35.7225C25.8887 37.4628 28.1237 38.4704 29.8 38.4704Z" fill="black"/>
</g>
<defs>
<clipPath id="clip0_10_247">
<rect width="59.6" height="58.6218" fill="white"/>
</clipPath>
</defs>
</svg>
