<?xml version="1.0" standalone="no"?>
<!DOCTYPE svg PUBLIC "-//W3C//DTD SVG 20010904//EN"
 "http://www.w3.org/TR/2001/REC-SVG-20010904/DTD/svg10.dtd">
<svg version="1.0" xmlns="http://www.w3.org/2000/svg"
 width="64.000000pt" height="64.000000pt" viewBox="0 0 64.000000 64.000000"
 preserveAspectRatio="xMidYMid meet">

<g transform="translate(0.000000,64.000000) scale(0.100000,-0.100000)"
fill="#000000" stroke="none">
<path d="M5 628 c-3 -7 -4 -150 -3 -318 l3 -305 109 -3 c118 -3 126 0 126 51
0 25 -3 27 -40 27 -42 0 -56 10 -108 79 -22 29 -22 31 -5 31 11 0 34 -16 53
-35 45 -47 89 -46 104 0 5 18 -1 23 -38 34 -51 15 -69 31 -91 84 -19 46 -19
94 0 131 8 15 15 45 15 65 0 59 11 67 62 48 58 -21 219 -22 260 -1 42 22 58
12 58 -36 0 -23 7 -55 16 -72 11 -22 15 -49 12 -90 -4 -47 -10 -64 -34 -89
-16 -17 -48 -36 -72 -42 -33 -9 -41 -15 -35 -27 3 -8 9 -46 12 -85 l6 -70 113
-3 112 -3 -2 318 -3 318 -313 3 c-246 2 -314 0 -317 -10z"/>
</g>
</svg>
