<svg width="38" height="48" viewBox="0 0 38 48" fill="none" xmlns="http://www.w3.org/2000/svg">
<path d="M17.5207 12.3049C12.223 12.7743 7.61369 15.6444 5.2861 19.9227C4.73535 20.9286 4.47964 21.5455 4.1846 22.538C3.82399 23.7853 3.73219 24.4692 3.69941 26.2061L3.66663 27.7551H6.85313H10.0396V27.1918V26.6285L7.50222 26.6151L4.95828 26.6017L4.97794 25.7702C5.01728 23.3494 5.8303 21.0292 7.34487 18.9906C7.55468 18.7089 7.79071 18.4072 7.87595 18.32L8.02675 18.1591L9.28561 19.2991C9.98061 19.9294 10.5773 20.4457 10.61 20.4457C10.6428 20.4457 10.8592 20.2714 11.0821 20.0702L11.4952 19.6947L10.1707 18.4944L8.84632 17.294L9.31184 16.8917C11.0887 15.356 13.3113 14.2697 15.7438 13.7534C16.4913 13.5924 17.5141 13.4516 17.9337 13.4516H18.2353L18.2484 14.8598L18.2681 16.2747H18.891H19.5139L19.5335 14.8598L19.5466 13.4516H19.8482C20.2679 13.4516 21.2907 13.5924 22.0381 13.7534C24.4706 14.2697 26.6933 15.356 28.4701 16.8917L28.9356 17.294L27.6112 18.4944L26.2868 19.6947L26.6999 20.0702C26.9228 20.2714 27.1391 20.4457 27.1719 20.4457C27.2047 20.4457 27.8014 19.9294 28.4964 19.2991L29.7552 18.1591L29.906 18.32C29.9913 18.4072 30.2273 18.7157 30.4371 18.9906C31.9517 21.0292 32.7581 23.3494 32.804 25.7702L32.8237 26.6017L30.2863 26.6151L27.7424 26.6285V27.1918V27.7551H30.9289H34.1153L34.0826 26.2061C34.0498 24.476 33.958 23.792 33.5974 22.538C33.3089 21.5455 33.0532 20.9286 32.4959 19.9227C31.0141 17.2136 28.6275 15.0476 25.6377 13.7064C24.1297 13.0291 22.7921 12.6402 21.1858 12.4122C20.3006 12.2915 18.3533 12.2311 17.5207 12.3049Z" fill="white"/>
<path d="M19.8156 21.7725C17.4749 22.785 15.4292 23.6836 15.2719 23.7708C14.8457 23.9921 14.3539 24.4682 14.1048 24.9041C13.3967 26.1312 13.6131 27.4992 14.6752 28.4648C15.3571 29.0818 16.1111 29.3701 17.0553 29.3567C18.1895 29.35 19.2386 28.8337 19.8287 28.0021C20.0516 27.687 24.1232 19.9887 24.0904 19.9619C24.0773 19.9418 22.1497 20.7599 19.8156 21.7725ZM20.1303 24.8437C18.701 27.573 18.5829 27.7406 17.9273 28.029C17.6322 28.1631 17.5208 28.1765 17.0225 28.1765C16.5176 28.1765 16.4258 28.1631 16.1111 28.0223C15.6915 27.8278 15.3374 27.4925 15.1342 27.0834C15.003 26.8219 14.9768 26.7012 14.9768 26.319C14.9768 25.9367 15.0096 25.816 15.1342 25.5545C15.403 25.0315 15.6915 24.8236 16.8848 24.3005C19.4484 23.1807 21.3891 22.3491 21.4023 22.3626C21.4219 22.376 20.845 23.4958 20.1303 24.8437Z" fill="white"/>
<path d="M9.60695 3.22181C4.80941 4.73795 0.640512 6.18084 0.389054 6.40057C0.0383375 6.69354 -0.034456 9.24974 0.0383343 18.6469L0.144209 30.5196L1.16328 32.7389C3.12861 36.9943 10.3415 43.469 16.8926 46.8309L18.891 47.8636L20.9225 46.8309C27.4406 43.4617 34.66 36.987 36.6188 32.7389L37.6378 30.5196L37.7437 18.6469C37.8165 9.24974 37.7437 6.69354 37.393 6.40057C36.9033 5.99041 19.4204 0.372646 18.7521 0.409267C18.5403 0.409267 14.4376 1.66906 9.60695 3.22181ZM27.0501 5.81462L35.0041 8.32687V19.057C35.0041 29.7872 35.0041 29.8238 34.1307 31.6695C32.4499 35.2218 26.1767 40.8835 20.5718 43.8792L18.891 44.7654L17.2102 43.8792C11.6054 40.8835 5.33217 35.2218 3.65138 31.6695C2.77789 29.8165 2.7779 29.7799 2.7779 19.057V8.32687L10.4143 5.85124C14.5832 4.51822 18.2624 3.41224 18.5403 3.37562C18.8182 3.339 22.6364 4.44497 27.0501 5.81462Z" fill="white"/>
</svg>
